<?xml version="1.0" encoding="UTF-8"?>
<svg xmlns="http://www.w3.org/2000/svg" xmlns:xlink="http://www.w3.org/1999/xlink" width="48px" height="48px" viewBox="0 0 48 47" version="1.1">
<g id="surface1">
<path style=" stroke:none;fill-rule:nonzero;fill:rgb(0%,0%,0%);fill-opacity:1;" d="M 15.839844 16.695312 C 15.636719 16.777344 15.390625 16.996094 15.226562 17.230469 C 14.996094 17.578125 14.964844 17.691406 15.003906 18.140625 C 15.042969 18.453125 15.214844 19.015625 15.457031 19.550781 C 15.675781 20.039062 15.992188 20.785156 16.175781 21.195312 C 16.714844 22.4375 17.097656 23.339844 17.28125 23.734375 C 17.972656 25.285156 17.953125 25.15625 17.894531 27.417969 C 17.855469 28.800781 17.875 29.609375 17.941406 29.875 C 18.316406 31.226562 20.0625 31.507812 20.753906 30.324219 C 20.964844 29.949219 20.976562 29.855469 20.996094 27.609375 C 21.015625 25.820312 21.054688 25.210938 21.160156 24.976562 C 21.753906 23.679688 22.175781 22.683594 22.980469 20.707031 C 23.710938 18.914062 23.902344 18.339844 23.902344 17.972656 C 23.902344 16.863281 22.742188 16.207031 21.753906 16.761719 C 21.195312 17.0625 21.207031 17.042969 19.96875 20.40625 C 19.449219 21.84375 19.46875 21.828125 19.199219 21.085938 C 18.433594 18.914062 17.796875 17.34375 17.597656 17.097656 C 17.125 16.554688 16.523438 16.414062 15.839844 16.695312 Z M 15.839844 16.695312 "/>
<path style=" stroke:none;fill-rule:nonzero;fill:rgb(0%,0%,0%);fill-opacity:1;" d="M 25.246094 16.648438 C 25.113281 16.695312 24.902344 16.835938 24.789062 16.949219 C 24.269531 17.417969 24.289062 17.203125 24.289062 23.78125 C 24.289062 30.664062 24.257812 30.34375 24.988281 30.8125 C 25.515625 31.160156 26.132812 31.160156 26.660156 30.8125 C 27.3125 30.390625 27.359375 30.191406 27.359375 27.851562 L 27.359375 25.804688 L 27.667969 26.273438 C 27.832031 26.527344 28.042969 26.863281 28.128906 27.023438 C 30.355469 30.824219 30.257812 30.679688 30.777344 30.925781 C 31.476562 31.265625 32.265625 30.980469 32.640625 30.277344 C 32.996094 29.582031 32.871094 29.113281 31.863281 27.429688 C 31.632812 27.054688 31.402344 26.667969 31.34375 26.582031 C 31.296875 26.488281 31.074219 26.132812 30.855469 25.785156 C 29.597656 23.726562 29.183594 22.992188 29.230469 22.859375 C 29.261719 22.785156 29.960938 21.863281 30.796875 20.8125 C 31.621094 19.75 32.378906 18.753906 32.476562 18.582031 C 33.003906 17.632812 32.21875 16.46875 31.113281 16.570312 C 30.539062 16.628906 30.308594 16.835938 29.472656 17.964844 C 29.078125 18.507812 28.453125 19.34375 28.078125 19.835938 L 27.40625 20.726562 L 27.359375 19.175781 C 27.3125 17.484375 27.226562 17.203125 26.667969 16.796875 C 26.371094 16.582031 25.601562 16.496094 25.246094 16.648438 Z M 25.246094 16.648438 "/>
</g>
</svg>
